<svg width="189" height="35" viewBox="0 0 189 35" fill="none" xmlns="http://www.w3.org/2000/svg">
<path fill-rule="evenodd" clip-rule="evenodd" d="M30.6626 0V34.507H25.3875L6.35947 11.1407V34.507H0V0H5.27511L24.3027 23.3658V0H30.6626Z" fill="black"/>
<path fill-rule="evenodd" clip-rule="evenodd" d="M76.7041 19.4718V0H83.1128V19.2251C83.1128 26.3235 86.3167 29.3807 91.8872 29.3807C97.4578 29.3807 100.613 26.3235 100.613 19.2251V0H106.922V19.4718C106.922 29.5282 101.253 35 91.8377 35C82.3726 35 76.7041 29.5282 76.7041 19.4718Z" fill="black"/>
<path fill-rule="evenodd" clip-rule="evenodd" d="M120.768 17.6969V0H114.36V34.507H120.768V17.6969Z" fill="black"/>
<path fill-rule="evenodd" clip-rule="evenodd" d="M164.36 18.6953L169.286 7.72649L174.233 18.6953H180.93L172.49 0H166.181L157.768 18.6953H164.36Z" fill="#00ADEE"/>
<path fill-rule="evenodd" clip-rule="evenodd" d="M183.51 24.4097H176.81L181.364 34.507H188.068L183.51 24.4097Z" fill="black"/>
<path fill-rule="evenodd" clip-rule="evenodd" d="M155.196 24.4097L150.653 34.507H157.258L161.793 24.4097H155.196Z" fill="black"/>
<path fill-rule="evenodd" clip-rule="evenodd" d="M48.9764 18.6953L53.9032 7.72649L58.8497 18.6953H65.5468L57.1071 0H50.7972L42.3839 18.6953H48.9764Z" fill="#00ADEE"/>
<path fill-rule="evenodd" clip-rule="evenodd" d="M68.1263 24.4097H61.4267L65.9803 34.507H72.6844L68.1263 24.4097Z" fill="black"/>
<path fill-rule="evenodd" clip-rule="evenodd" d="M39.8127 24.4097L35.269 34.507H41.8743L46.4097 24.4097H39.8127Z" fill="black"/>
<path fill-rule="evenodd" clip-rule="evenodd" d="M130.954 16.9423L144.128 0H136.931L125.586 13.9876V19.7962L138.063 34.507H145.556L130.954 16.9423Z" fill="black"/>
</svg>
