<?xml version="1.0" encoding="UTF-8" standalone="no" ?>
<!DOCTYPE svg PUBLIC "-//W3C//DTD SVG 1.1//EN" "http://www.w3.org/Graphics/SVG/1.1/DTD/svg11.dtd">
<svg xmlns="http://www.w3.org/2000/svg" xmlns:xlink="http://www.w3.org/1999/xlink" version="1.1" width="40" height="40" viewBox="0 0 87 87" xml:space="preserve">
<desc>Created with Fabric.js 5.3.0</desc>
<defs>
</defs>
<g transform="matrix(1 0 0 1 43.5 43.5)" id="hIcEO3J87CAvjx7koc-3B"  >
<g style=""   >
		<g transform="matrix(1.0623526404 0 0 1.0620452804 0 0)" id="tKdWt69rzASdblsw98dMe"  >
<path style="stroke: rgb(190,93,135); stroke-width: 0; stroke-dasharray: none; stroke-linecap: butt; stroke-dashoffset: 0; stroke-linejoin: miter; stroke-miterlimit: 4; fill: rgb(28,98,176); fill-rule: nonzero; opacity: 1;"  transform=" translate(0, 0)" d="M 0 -40.39112 C 22.2959 -40.39112 40.39112 -22.2959 40.39112 0 C 40.39112 22.2959 22.2959 40.39112 0 40.39112 C -22.2959 40.39112 -40.39112 22.2959 -40.39112 0 C -40.39112 -22.2959 -22.2959 -40.39112 0 -40.39112 z" stroke-linecap="round" />
</g>
		<g transform="matrix(-1.273259737 0 0 -1.273259737 0.7314460893 13.6921465776)" id="ZsILnmEPYtcJT5PW_SHvj"  >
<path style="stroke: rgb(255,255,255); stroke-width: 1; stroke-dasharray: none; stroke-linecap: butt; stroke-dashoffset: 0; stroke-linejoin: miter; stroke-miterlimit: 4; fill: rgb(255,255,255); fill-rule: nonzero; opacity: 1;"  transform=" translate(-0.000005, 0)" d="M -18.60285 1.19066 L -0.27017000000000024 1.19066 L -9.35829 -7.89746 L 2.8079400000000003 -7.89746 L 18.60286 7.89746 L -18.602850000000004 7.89746 z" stroke-linecap="round" />
</g>
		<g transform="matrix(1.2773805199 0 0 1.2773805199 0.0000063869 -13.7267506831)" id="Km3t9-vI72Bocfkr7r0LA"  >
<path style="stroke: rgb(255,255,255); stroke-width: 1; stroke-dasharray: none; stroke-linecap: butt; stroke-dashoffset: 0; stroke-linejoin: miter; stroke-miterlimit: 4; fill: rgb(255,255,255); fill-rule: nonzero; opacity: 1;"  transform=" translate(-0.000005, 0)" d="M -18.60285 1.19066 L -0.27017000000000024 1.19066 L -9.35829 -7.89746 L 2.8079400000000003 -7.89746 L 18.60286 7.89746 L -18.602850000000004 7.89746 z" stroke-linecap="round" />
</g>
</g>
</g>
</svg>